<svg xmlns="http://www.w3.org/2000/svg" xmlns:xlink="http://www.w3.org/1999/xlink" width="90" height="90" viewBox="0 0 90 90">
  <defs>
    <style>
      .cls-1 {
        fill: url(#linear-gradient);
      }

      .cls-2 {
        fill: #fff;
      }
    </style>
    <linearGradient id="linear-gradient" x1="0.812" y1="1" x2="0.188" gradientUnits="objectBoundingBox">
      <stop offset="0" stop-color="#f7a25e"/>
      <stop offset="1" stop-color="#fad675"/>
    </linearGradient>
  </defs>
  <g id="组_34" data-name="组 34" transform="translate(-590 -409)">
    <circle id="矩形_3_拷贝_3" data-name="矩形 3 拷贝 3" class="cls-1" cx="45" cy="45" r="45" transform="translate(590 409)"/>
    <path id="路径_277" data-name="路径 277" class="cls-2" d="M133.076,99.937V84.313c0-7.56,5.812-13.867,13.537-15.313V67.123a3.4,3.4,0,0,1,6.769,0V69c7.726,1.45,13.537,7.753,13.537,15.313V99.937h1.7a3.135,3.135,0,1,1,0,6.25H131.378a3.575,3.575,0,0,1-2.4-.922,2.95,2.95,0,0,1-.977-2.2,3.26,3.26,0,0,1,3.381-3.127h1.7Zm22,9.377a5.095,5.095,0,0,1-10.157,0Z" transform="translate(485.003 365)"/>
  </g>
</svg>
