<svg xmlns="http://www.w3.org/2000/svg" width="40" height="40" viewBox="0 0 40 40">
  <defs>
    <style>
      .cls-1 {
        fill: #fff;
      }

      .cls-2 {
        fill: #2a77ff;
        stroke: #2a77ff;
      }
    </style>
  </defs>
  <g id="组_5340" data-name="组 5340" transform="translate(-61 -564)">
    <rect id="矩形_107" data-name="矩形 107" class="cls-1" width="40" height="40" transform="translate(61 564)"/>
    <path id="路径_309" data-name="路径 309" class="cls-2" d="M100.413,81.433H95.373a1.694,1.694,0,0,0-1.732,1.723V95.768a1.743,1.743,0,0,0,1.732,1.723h5.039a1.694,1.694,0,0,0,1.732-1.723V83.157A1.743,1.743,0,0,0,100.413,81.433Zm.472,14.021a.537.537,0,0,1-.551.548h-4.8a.537.537,0,0,1-.551-.548V83.313a.537.537,0,0,1,.551-.548h4.8a.537.537,0,0,1,.551.548ZM89.7,67.491H84.665a1.694,1.694,0,0,0-1.732,1.723V95.768a1.743,1.743,0,0,0,1.732,1.723H89.7a1.694,1.694,0,0,0,1.732-1.723V69.214A1.742,1.742,0,0,0,89.7,67.491ZM90.1,95.454a.537.537,0,0,1-.551.548h-4.8a.537.537,0,0,1-.551-.548V69.449a.537.537,0,0,1,.551-.548h4.8a.537.537,0,0,1,.551.548V95.454ZM78.838,74.7H73.877a1.694,1.694,0,0,0-1.732,1.723V95.768a1.743,1.743,0,0,0,1.732,1.723h5.039a1.694,1.694,0,0,0,1.732-1.723V76.42A1.813,1.813,0,0,0,78.838,74.7Zm.472,20.757a.537.537,0,0,1-.551.548h-4.8a.537.537,0,0,1-.551-.548v-18.8a.537.537,0,0,1,.551-.548h4.8a.537.537,0,0,1,.551.548v18.8Z" transform="translate(-5.645 502.009)"/>
  </g>
</svg>
