<?xml version="1.0" standalone="no"?><!DOCTYPE svg PUBLIC "-//W3C//DTD SVG 1.1//EN" "http://www.w3.org/Graphics/SVG/1.1/DTD/svg11.dtd"><svg t="1648218641641" class="icon" viewBox="0 0 1024 1024" version="1.1" xmlns="http://www.w3.org/2000/svg" p-id="1819" xmlns:xlink="http://www.w3.org/1999/xlink" width="81" height="81"><defs><style type="text/css">@font-face { font-family: feedback-iconfont; src: url("//at.alicdn.com/t/font_1031158_u69w8yhxdu.woff2?t=1630033759944") format("woff2"), url("//at.alicdn.com/t/font_1031158_u69w8yhxdu.woff?t=1630033759944") format("woff"), url("//at.alicdn.com/t/font_1031158_u69w8yhxdu.ttf?t=1630033759944") format("truetype"); }
</style></defs><path d="M821.394 686.458c5.008-7.14 5.725-9.294 5.369-16.445-0.361-7.154-8.588-20.022-11.087-24.686-2.512-4.642-12.523-2.857-13.24-5.717-0.717-2.866-10.014-8.227-13.947-10.726 0 0-51.503-32.917-72.609-41.494-9.959-4.05-19.666-6.793-19.666-6.793s-7.162-11.09-10.728-17.89c-3.58-6.796-17.173-27.179-17.173-27.179s-3.221-21.106-4.653-27.181c-1.426-6.089-3.935-29.33-4.291-33.98-0.362-4.655 1.789-13.59 2.148-19.666 0.358-6.084 0-17.532 0-17.532 6.434-7.868 13.232-25.035 16.09-29.327 2.868-4.291 4.661-15.381 8.588-23.599 3.935-8.24 0.714-14.316 2.499-16.817 1.796-2.507 8.588-22.532 12.521-37.562 3.935-15.022 15.025-84.048 15.025-92.626 0-8.588-1.784-16.815-5.717-19.327-3.939-2.501-5.72-7.507-6.795-11.437-1.079-3.938-6.445-7.148-9.663-7.148s-5.37-2.871-7.154-5.022c-1.779-2.135-7.51-4.283-12.159-6.434-4.655-2.135-13.232-10.014-13.949-11.081-0.717-1.073-5.359-6.083-8.936-7.151-3.588-1.076-4.663 1.426-6.086 2.493-1.426 1.076-5.003-1.067-7.868 0.359-2.86 1.431-7.86 1.075-7.86 1.075s-15.75-4.294-23.618-7.513c-7.86-3.218-28.254-8.227-32.187-10.014-3.936-1.782-6.434-4.65-8.229-5.006-1.782-0.361-10.014-4.286-11.087-5.361-1.076-1.079-6.076-1.079-7.868-3.23-1.784-2.135-15.372-3.925-17.882-4.642-2.501-0.717-7.154-1.434-9.297-1.792-2.14-0.356-2.86 1.075-4.302 2.509-1.423 1.435-3.566 1.076-7.14 1.435-3.588 0.355-3.946 1.067-4.297 3.207-0.358 2.154-1.434 4.655-1.434 4.655s-1.782 0.356-3.577 1.79c-1.782 1.428-3.216 3.218-3.216 5.367 0 2.135 1.434 4.286 1.434 4.286-3.585 0-5.367 3.577-5.725 6.44-0.364 2.865-1.787 8.224-2.865 10.019-1.065 1.79 1.437 6.795 3.224 9.653 1.782 2.86 5.008 3.577 7.148 3.577 2.152 0 8.588 3.933 8.588 3.933l-3.935 1.784c-6.793 1.431-25.033 5.731-25.033 5.731l-17.557 23.734c-2.51 5.001 3.307 15.853 3.307 15.853l2.501 15.973c0 3.577 2.085 7.386 2.085 8.461l2.154 8.944 1.423 1.429-0.358 3.216 2.499 3.935 2.154 0.717c1.434 2.513 1.076 7.151 1.076 7.151-3.933 8.588-2.51 13.24 0.358 15.022 2.857 1.792 3.933 1.075 3.933 1.075 1.426 5.369 1.426 10.019 1.426 10.019 0.361 2.501 3.229 3.93 3.229 3.93s0.714 3.933 2.143 5.006c1.434 1.079 0.714 7.157 3.574 13.591 2.86 6.445 6.434 7.154 6.434 7.154-12.151 2.507-17.521 13.952-18.241 17.173-0.714 3.216-16.095 12.16-19.313 14.302-3.216 2.143-2.86 5.728-4.283 6.804-1.435 1.067-14.316 7.86-17.535 10.011-3.216 2.145-5.369 0-9.302 1.784-3.928 1.784-7.154 3.935-10.37 6.078-3.221 2.152-7.512 8.944-7.512 14.314 0 5.364-7.143 15.731-11.448 21.459-4.283 5.717-23.599 23.969-23.599 23.969s-8.227-2.151-12.162-3.585c-3.938-1.426-9.652-1.784-12.162-2.493-2.513-0.717-6.793-6.084-9.297-8.596-2.51-2.494-9.3-7.86-11.453-8.577-2.143-0.717-6.078-3.574-6.078-3.574-3.216-5.369-5.367-3.588-5.367-3.588-3.216-2.491-6.429-8.218-7.504-11.801-1.076-3.569-4.65-7.507-3.944-8.941 4.403-8.784 3.229-18.238 5.378-23.966 2.143-5.717 0-8.938-2.148-11.44-2.154-2.51-6.437-9.658-9.3-13.95-2.866-4.288-8.583-0.722-8.583-0.722-5.369-5-9.663-4.291-11.804-2.499-2.151 1.79-5.011 3.221-5.011 3.221-1.784-1.067-4.297 0-5.722 0.715-1.432 0.72-4.65 1.434-7.868 3.577-3.216 2.149-2.857 6.793-2.857 6.793s-2.868 2.51-5.728 5.008c-2.86 2.504-2.86 6.804-2.86 6.804-2.151 1.426-2.868 0.72-5.011 2.854-2.14 2.149-2.857 3.933-2.857 6.442 0 2.499 0 4.998 1.784 10.011 1.79 5.001 6.801 10.022 11.084 14.314 4.302 4.286 8.946 9.297 12.524 11.437 3.577 2.143 3.933 4.656 3.933 8.588 0 3.927 6.44 5.717 8.946 7.868 2.501 2.143 7.513 10.381 7.513 10.381-3.23 4.283-5.728 6.067-5.728 15.731 0 9.652 2.499 30.394 2.499 30.394-2.499 6.087 1.434 16.095 2.154 24.691 0.715 8.58 7.151 12.159 11.446 12.515 4.291 0.358 4.291 2.501 10.73 4.283 6.435 1.796 9.292-1.423 9.292-1.423s4.652 1.423 8.588 5.725c3.944 4.286 17.893 1.784 23.969 1.426 6.076-0.35 24.674-5.728 40.414-10.731 15.739-5.011 18.241-11.076 18.241-13.585 0-2.512 0.717-2.512 7.871-5.369 19.751-7.895 31.476-20.384 32.543-21.818 1.073-1.431 1.073-1.784 5.011-1.431 3.933 0.356 5.72-0.711 8.229-1.067 2.51-0.361 3.574 2.499 5.359 6.073 1.792 3.58 1.431 11.09 4.655 18.599 3.224 7.523 7.149 20.742 7.868 23.601 0.715 2.868-2.501 3.944-5.361 5.728-2.868 1.793-7.51 5.011-11.09 7.507-3.582 2.513-1.792 8.232-1.792 8.232-15.378-3.577-60.436 22.173-65.099 24.327-4.645 2.138-5.001 4.639-8.224 6.423-3.221 1.796-31.831 14.672-38.266 15.753-6.434 1.065-12.882 3.567-15.024 8.933-2.149 5.369-5.008 2.51-7.159 3.935-2.143 1.434-1.065 2.143-2.501 7.871-1.423 5.725-5.72 3.577-7.154 7.868-1.431 4.294-2.499 6.434-8.216 8.588-5.731 2.14-7.521 5.717-8.232 8.218-0.714 2.507-25.759 30.761-31.12 36.848-5.367 6.079-23.249 30.403-23.249 30.403-24.675 5.362-19.308 18.958-19.308 18.958s-8.224 7.866-19.672 16.807c-11.446 8.933-23.608 20.022-29.339 23.966-5.717 3.925-3.207 7.501-4.283 12.154-1.075 4.652 3.935 10.022 3.935 10.022s-6.803-1.792-10.022-0.361c-3.216 1.426-7.512 8.588-8.946 12.515-1.423 3.935-13.227 11.806-20.022 17.173-6.804 5.359-30.761 20.392-33.98 22.89-3.224 2.501-10.37 11.445-13.238 15.739-2.86 4.294 0 10.373 2.154 12.162 2.14 1.787 5.359 7.86 16.804 9.294 11.445 1.44 36.848-5.008 45.667-9.06 13.202-6.059 30.044-16.214 31.953-17.638 1.91-1.434 30.998-5.725 42.437-7.165 11.448-1.426 11.923-8.574 11.923-8.574 5.253 3.811 12.406 0 15.739-0.953 3.344-0.956 27.66-7.634 37.198-10.978 9.547-3.335 13.461-8.479 18.124-13.819 4.892-5.606 28.738-23.729 38.747-34.455 10.014-10.739 42.556-41.853 49.001-47.576 6.434-5.731 10.011-8.232 17.523-13.949 7.513-5.725 35.055-19.672 39.341-23.966 4.299-4.294 31.837-16.448 34.344-17.882 2.501-1.434 9.655-1.434 16.807 0 7.154 1.434 23.252 1.076 23.252 1.076l1.075 6.076s5.359 0.711 9.302 0.358c3.927-0.358 24.316 3.935 37.551 3.935 13.237 0 35.411-0.714 44.357-2.151 8.935-1.431 24.674-9.294 24.674-9.294s3.925 4.65 6.793 6.793c2.86 2.143 5.717 5.014 15.742 10.017 10.008 5.006 15.739 12.879 15.739 12.879s-7.165 3.933-10.373 6.434c-3.227 2.501-5.367 3.574-3.227 8.227 2.151 4.644-2.14 6.437-0.717 11.448 1.434 5 0.359 12.512 1.076 15.739 0.717 3.216-2.499 5.717-3.218 8.935-0.714 3.227-0.356 11.804 7.154 16.812 7.513 5.013 19.316 7.515 19.316 7.515 10.369 12.162 31.12 9.299 35.403 9.299 4.302 0 29.335 6.785 47.576 8.222 18.241 1.437 21.818-2.499 25.392-9.653 3.579-7.154-2.857-10.739-4.65-12.882-1.784-2.143-8.227-8.585-15.022-10.725-6.795-2.143-16.09-7.157-16.09-7.157s8.935-13.235 17.524-28.966c8.571-15.743 23.245-48.644 28.245-55.809z" fill="#2A77FF" p-id="1820"></path></svg>