<svg xmlns="http://www.w3.org/2000/svg" width="32" height="32" viewBox="0 0 32 32">
  <defs>
    <style>
      .cls-1, .cls-2 {
        fill: #2a77ff;
        stroke: #2a77ff;
      }

      .cls-1 {
        opacity: 0;
      }

      .cls-2 {
        stroke-width: 0.4px;
      }

      .cls-3 {
        stroke: none;
      }

      .cls-4 {
        fill: none;
      }
    </style>
  </defs>
  <g id="ic_praise_s" transform="translate(-250 -1396)">
    <g id="矩形_2156" data-name="矩形 2156" class="cls-1" transform="translate(250 1396)">
      <rect class="cls-3" width="32" height="32"/>
      <rect class="cls-4" x="0.5" y="0.5" width="31" height="31"/>
    </g>
    <path id="路径_29346" data-name="路径 29346" class="cls-2" d="M27.922,10.024c-1.2-.313-4.01-.307-8.128-.417a13.849,13.849,0,0,0,.239-3.145c0-3.437-2.5-6.462-4.716-6.462a2.889,2.889,0,0,0-2.872,2.851c-.021,1.927-.614,5.256-3.829,6.947-.236.123-.908.454-1.006.5l.049.043a3.038,3.038,0,0,0-1.915-.767H2.872A2.875,2.875,0,0,0,0,12.445V27.769a2.876,2.876,0,0,0,2.872,2.872H5.744A2.838,2.838,0,0,0,8.3,28.987L8.343,29l.23.061a.12.12,0,0,1,.043.009c.552.138,1.614.39,3.881.911a28.477,28.477,0,0,0,5.719.66h5.235a3.544,3.544,0,0,0,3.427-1.847,32.761,32.761,0,0,0,3.759-15.477,3.548,3.548,0,0,0-2.716-3.289ZM6.7,27.769a.959.959,0,0,1-.957.957H2.872a.957.957,0,0,1-.957-.957V12.445a.959.959,0,0,1,.957-.957H5.744a.957.957,0,0,1,.957.957V27.769Z" transform="translate(250.737 1396.68)"/>
  </g>
</svg>
