<svg xmlns="http://www.w3.org/2000/svg" width="30" height="30" viewBox="0 0 30 30">
  <defs>
    <style>
      .cls-1 {
        fill: rgba(255,255,255,0);
      }

      .cls-2, .cls-4 {
        fill: #f7bd34;
      }

      .cls-2 {
        stroke-linecap: round;
        stroke-linejoin: round;
      }

      .cls-3, .cls-4 {
        stroke: none;
      }
    </style>
  </defs>
  <g id="组_1963" data-name="组 1963" transform="translate(-615 -501)">
    <rect id="矩形_799" data-name="矩形 799" class="cls-1" width="30" height="30" transform="translate(615 501)"/>
    <g id="路径_784" data-name="路径 784" class="cls-2" transform="translate(616 503)">
      <path class="cls-3" d="M 4.580839157104492 27.28546905517578 L 4.864459037780762 26.22387886047363 L 7.189651966094971 17.52091407775879 L -0.3427209556102753 10.4299898147583 L -1.091690897941589 9.724920272827148 L -0.07456095516681671 9.57151985168457 L 9.322114944458008 8.154390335083008 L 13.55367946624756 -0.2253801971673965 L 13.99097919464111 -1.091360211372375 L 14.44252872467041 -0.2327301949262619 L 18.85335350036621 8.154389381408691 L 28.07594871520996 9.57172966003418 L 29.12762832641602 9.733359336853027 L 28.33196830749512 10.4398193359375 L 21.72405433654785 16.30695533752441 L 23.14745903015137 26.28231048583984 L 23.28092956542969 27.21772956848145 L 22.43243980407715 26.80192947387695 L 13.99999904632568 22.66955757141113 L 5.567549228668213 26.80192947387695 L 4.580839157104492 27.28546905517578 Z"/>
      <path class="cls-4" d="M 13.99999904632568 0 L 9.652029037475586 8.61029052734375 L -1.9073486328125e-06 10.0659294128418 L 7.749778747558594 17.36151885986328 L 5.347518920898438 26.35293960571289 L 13.99999904632568 22.11273956298828 L 22.65246963500977 26.35293960571289 L 21.19109916687012 16.11151885986328 L 28 10.0659294128418 L 18.52818870544434 8.61029052734375 L 13.99999904632568 0 M 14.00002479553223 -1.000003814697266 C 14.37117767333984 -1.000003814697266 14.71209621429443 -0.7943534851074219 14.88506889343262 -0.4654598236083984 L 19.17852783203125 7.698490142822266 L 28.15189933776855 9.077529907226563 C 28.53495979309082 9.13640022277832 28.84951972961426 9.411310195922852 28.95914840698242 9.783050537109375 C 29.06878852844238 10.1547794342041 28.95375823974609 10.55638980865479 28.66394996643066 10.81371021270752 L 22.25700187683105 16.50240707397461 L 23.6424388885498 26.21167945861816 C 23.69477844238281 26.57844924926758 23.54004859924316 26.94408988952637 23.24034881591797 27.16189002990723 C 23.06633567810059 27.28835105895996 22.85993957519531 27.35294532775879 22.65236473083496 27.35294532775879 C 22.50243759155273 27.35294532775879 22.35192489624023 27.31928062438965 22.21240997314453 27.25090980529785 L 13.99999904632568 23.22636413574219 L 5.787578582763672 27.25090980529785 C 5.64784049987793 27.31938743591309 5.497325897216797 27.35295104980469 5.347682952880859 27.35295104980469 C 5.120363235473633 27.35295104980469 4.895040512084961 27.2755126953125 4.712448120117188 27.12538909912109 C 4.409648895263672 26.87644004821777 4.280218124389648 26.47353935241699 4.38140869140625 26.09482002258301 L 6.62952995300293 17.68032455444336 L -0.6854515075683594 10.7940502166748 C -0.9641819000244141 10.53166007995605 -1.06865119934082 10.13315963745117 -0.9545116424560547 9.767768859863281 C -0.8403816223144531 9.402370452880859 -0.5276508331298828 9.134199142456055 -0.1491317749023438 9.077110290527344 L 8.992202758789063 7.698488235473633 L 13.10735893249512 -0.4507598876953125 C 13.27610874176025 -0.7849407196044922 13.6173791885376 -0.9968700408935547 13.99172878265381 -0.999969482421875 C 13.99449348449707 -0.9999923706054688 13.99726295471191 -1.000003814697266 14.00002479553223 -1.000003814697266 Z"/>
    </g>
  </g>
</svg>
