<svg xmlns="http://www.w3.org/2000/svg" xmlns:xlink="http://www.w3.org/1999/xlink" width="90" height="90" viewBox="0 0 90 90"><defs><style>.cls-1 {fill: url(#linear-gradient);}.cls-2 {fill: url(#linear-gradient-2);}</style><linearGradient id="linear-gradient" x1="0.5" x2="0.5" y2="1" gradientUnits="objectBoundingBox"><stop offset="0" stop-color="#9e95ff"/><stop offset="1" stop-color="#5a5aff"/></linearGradient><linearGradient id="linear-gradient-2" x1="0.5" x2="0.5" y2="1" gradientUnits="objectBoundingBox"><stop offset="0" stop-color="#fff"/><stop offset="1" stop-color="#cac7ff"/></linearGradient></defs><g id="ic_match_ranking" transform="translate(-243 -167)"><circle id="椭圆_2_拷贝" data-name="椭圆 2 拷贝" class="cls-1" cx="45" cy="45" r="45" transform="translate(243 167)"/><path id="路径_29762" data-name="路径 29762" class="cls-2" d="M95.2.023H65.97a4.592,4.592,0,0,0-4.51,4.564V39.029a4.592,4.592,0,0,0,4.51,4.564H95.291a4.591,4.591,0,0,0,4.51-4.564V4.588A4.737,4.737,0,0,0,95.2.023ZM73.328,2.7H87.842V17.392L80.58,10.047l-7.252,7.345ZM92.842,33.969H68.324V31.285H92.837v2.684Zm0-8.639H68.324V22.652H92.837V25.33Z" transform="translate(207.369 189.551)"/></g></svg>