<svg xmlns="http://www.w3.org/2000/svg" xmlns:xlink="http://www.w3.org/1999/xlink" width="90" height="90" viewBox="0 0 90 90">
  <defs>
    <style>
      .cls-1 {
        fill: url(#linear-gradient);
      }

      .cls-2 {
        fill: #fff;
      }
    </style>
    <linearGradient id="linear-gradient" x1="0.812" y1="1" x2="0.188" gradientUnits="objectBoundingBox">
      <stop offset="0" stop-color="#06bcf8"/>
      <stop offset="1" stop-color="#6ddeff"/>
    </linearGradient>
  </defs>
  <g id="组_32" data-name="组 32" transform="translate(-243 -409)">
    <path id="矩形_3_拷贝" data-name="矩形 3 拷贝" class="cls-1" d="M288,409h0a45,45,0,0,1,0,90h0a45,45,0,0,1,0-90Z"/>
    <path id="减去_14" data-name="减去 14" class="cls-2" d="M829.373-21745c-.087,0-.174,0-.261-.006H798.954a7.118,7.118,0,0,1-4.905-1.975,6.907,6.907,0,0,1-2.051-4.9v-30.158a7.118,7.118,0,0,1,1.979-4.9,6.9,6.9,0,0,1,4.905-2.051h30.229v.07a7.127,7.127,0,0,1,4.905,1.98,6.533,6.533,0,0,1,1.979,4.9v30.158a7.125,7.125,0,0,1-1.979,4.9A6.554,6.554,0,0,1,829.373-21745Zm-33.569-13.982h0v7.1c0,1.148.534,2.629,3.079,3.148a27.971,27.971,0,0,0,5.169.3c1.8,0,3.926-.039,6.961-.1,4.345-.084,10.295-.2,18.1-.2a3.116,3.116,0,0,0,3.15-3.148v-7.1h-6.513a10.82,10.82,0,0,1-4.677,3.785,17.8,17.8,0,0,1-7.036,1.262c-5.494,0-9.534-1.7-12.008-5.047Zm11.823-17.844a6,6,0,0,0-5.993,5.988,6,6,0,0,0,5.993,5.992h14.086c.061,0,.129,0,.23-.01s.183.008.294.008a4.645,4.645,0,0,0,3.944-2.217,4.617,4.617,0,0,0,.022-4.779,4.655,4.655,0,0,0-3.977-2.254c-.08,0-.16,0-.239.006a6.544,6.544,0,0,0,.038-.738,6.841,6.841,0,0,0-6.83-6.836,6.877,6.877,0,0,0-6.562,4.922A6.218,6.218,0,0,0,807.627-21776.828Z" transform="translate(-526.226 22220.773)"/>
  </g>
</svg>
