<svg xmlns="http://www.w3.org/2000/svg" width="226" height="226" viewBox="0 0 226 226">
  <defs>
    <style>
      .cls-1 {
        fill: #f8f8f8;
      }

      .cls-2 {
        fill: #cfcfcf;
      }

      .cls-3 {
        fill: #bfbfbf;
        font-size: 24px;
        font-family: PingFang SC Regular, PingFang SC;
        letter-spacing: 0.025em;
      }
    </style>
  </defs>
  <g id="组_254" data-name="组 254" transform="translate(25 -913)">
    <rect id="矩形_103" data-name="矩形 103" class="cls-1" width="226" height="226" rx="4" transform="translate(-25 913)"/>
    <g id="组_253" data-name="组 253" transform="translate(-48 367)">
      <path id="减去_1" data-name="减去 1" class="cls-2" d="M-8462.57,70h-62.858A8.5,8.5,0,0,1-8534,61.6V16.8a8.5,8.5,0,0,1,8.571-8.4h8.58a2.83,2.83,0,0,1,2.854,2.8,2.831,2.831,0,0,1-2.854,2.8h-8.6a2.85,2.85,0,0,0-2.838,2.8V61.6a2.832,2.832,0,0,0,2.857,2.8h62.858a2.83,2.83,0,0,0,2.854-2.8V16.8a2.836,2.836,0,0,0-2.827-2.8h-31.481a2.841,2.841,0,0,1-2.831-2.8A2.83,2.83,0,0,1-8494,8.4h31.431A8.5,8.5,0,0,1-8454,16.8V61.6A8.5,8.5,0,0,1-8462.57,70ZM-8494,56a16.993,16.993,0,0,1-17.143-16.8A16.993,16.993,0,0,1-8494,22.4a16.994,16.994,0,0,1,17.145,16.8A16.994,16.994,0,0,1-8494,56Zm3.5-27a4.5,4.5,0,0,0-4.5,4.5,4.5,4.5,0,0,0,4.5,4.5,4.5,4.5,0,0,0,4.5-4.5A4.5,4.5,0,0,0-8490.5,29Zm23.591-3.8a4.217,4.217,0,0,1-2.982-1.226A4.225,4.225,0,0,1-8471.15,21a4.251,4.251,0,0,1,4.29-4.2,4.248,4.248,0,0,1,4.285,4.2,4.248,4.248,0,0,1-4.285,4.2Zm-44.259-19.6A2.844,2.844,0,0,1-8514,2.8a2.831,2.831,0,0,1,2.855-2.8h11.431a2.833,2.833,0,0,1,2.859,2.8h.006a2.835,2.835,0,0,1-2.861,2.8h-11.456Z" transform="translate(8625 602)"/>
      <text id="照片_视频" data-name="照片/视频" class="cls-3" transform="translate(81 709)"><tspan x="0" y="0">照片/视频</tspan></text>
    </g>
  </g>
</svg>
